<?xml version="1.0" encoding="UTF-8" standalone="no"?><!DOCTYPE svg PUBLIC "-//W3C//DTD SVG 1.1//EN" "http://www.w3.org/Graphics/SVG/1.1/DTD/svg11.dtd"><svg width="100%" height="100%" viewBox="0 0 185 149" version="1.1" xmlns="http://www.w3.org/2000/svg" xmlns:xlink="http://www.w3.org/1999/xlink" xml:space="preserve" xmlns:serif="http://www.serif.com/" style="fill-rule:evenodd;clip-rule:evenodd;stroke-linecap:round;stroke-linejoin:round;stroke-miterlimit:1.5;"><rect id="Artboard2_AltFont" x="0" y="0" width="184.32" height="148.8" style="fill:none;"/><g id="Artboard2_AltFont1" serif:id="Artboard2_AltFont"><path id="sun" d="M28.127,82.793c-3.652,-6.64 -5.732,-14.28 -5.732,-22.406c-0,-25.53 20.533,-46.257 45.824,-46.257c15.528,-0 31.543,5.634 39.833,17.575l-27.476,34.002c0,0 -17.848,-13.419 -22.097,-16.614c-0.506,-0.38 -1.221,-0.302 -1.633,0.179c-4.546,5.307 -28.719,33.521 -28.719,33.521Z" style="stroke:#000;stroke-width:2px;"/><path id="lgMtn" d="M40.025,116.249l-32.988,-0l51.207,-59.586l23.276,17.024l39.25,-49.726l56.513,92.288l-42.562,-0l-31.434,-43.488l-21.832,23.432l-12.947,-8.022l-28.483,28.078Zm78.736,-77.263l-2.986,9.191l-9.664,-0l7.818,5.68l-2.986,9.19l7.818,-5.68l7.818,5.68l-2.986,-9.19l7.817,-5.68l-9.663,-0l-2.986,-9.191Z"/><path id="smMtn" d="M42.764,116.249l25.781,-25.571l13.271,8.237l21.226,-22.427l28.474,39.761"/><path id="star" d="M118.761,42.658l2.162,6.653l6.996,0l-5.66,4.112l2.162,6.654l-5.66,-4.112l-5.66,4.112l2.162,-6.654l-5.66,-4.112l6.996,0l2.162,-6.653Z"/><g transform="matrix(22.1674,0,0,22.1674,141.739,136.8)"></g><text x="42.505px" y="136.8px" style="font-family:'AgencyFB-Reg', 'Agency FB', sans-serif;font-stretch:condensed;font-size:22.167px;">EPCC CS CLUB</text></g></svg>